<svg width="195" height="283" viewBox="0 0 195 283" fill="none" xmlns="http://www.w3.org/2000/svg">
<g opacity="0.5" clip-path="url(#clip0_327_5846)">
<path d="M21.8192 133.461L9.02759 160.609L9.23935 160.709L22.031 133.561L21.8192 133.461Z" fill="#231F20"/>
<path d="M22.8803 133.497L22.6689 133.597L35.5625 160.697L35.7739 160.596L22.8803 133.497Z" fill="#231F20"/>
<path d="M45.4317 158.739H0.127686V163.13H45.4317V158.739Z" fill="#999B9E"/>
<path d="M45.4317 158.739H0.127686V160.082H45.4317V158.739Z" fill="#999B9E"/>
<path d="M45.4317 161.944H0.127686V163.13H45.4317V161.944Z" fill="#D5D7D8"/>
<path d="M45.4317 158.15H0.127686V159.336H45.4317V158.15Z" fill="#D5D7D8"/>
<path d="M10.2742 157.78H10.04V163.137H10.2742V157.78Z" fill="#231F20"/>
<path d="M34.8027 157.78H34.5686V163.137H34.8027V157.78Z" fill="#231F20"/>
<path d="M48.7381 155.549H3.43408V158.349H48.7381V155.549Z" fill="#999B9E"/>
<path d="M48.7381 155.549H3.43408V156.409H48.7381V155.549Z" fill="#999B9E"/>
<path d="M48.7381 157.589H3.43408V158.349H48.7381V157.589Z" fill="#D5D7D8"/>
<path d="M48.7381 155.166H3.43408V155.926H48.7381V155.166Z" fill="#D5D7D8"/>
<path d="M13.5735 154.938H13.3394V158.356H13.5735V154.938Z" fill="#231F20"/>
<path d="M38.1091 154.938H37.875V158.356H38.1091V154.938Z" fill="#231F20"/>
<path d="M45.3041 153.056H0V155.855H45.3041V153.056Z" fill="#999B9E"/>
<path d="M45.3041 153.056H0V153.915H45.3041V153.056Z" fill="#999B9E"/>
<path d="M45.3041 155.095H0V155.855H45.3041V155.095Z" fill="#D5D7D8"/>
<path d="M45.3041 152.672H0V153.432H45.3041V152.672Z" fill="#D5D7D8"/>
<path d="M10.1465 152.438H9.91235V155.855H10.1465V152.438Z" fill="#231F20"/>
<path d="M34.6751 152.438H34.4409V155.855H34.6751V152.438Z" fill="#231F20"/>
<path d="M22.8898 132.942H22.4144L19.9807 55.6437L20.4561 55.6295L22.6486 125.454L24.8482 55.8995L25.3235 55.9137L22.8898 132.942Z" fill="#231F20"/>
<path d="M23.6204 130.69H21.6904V132.147H23.6204V130.69Z" fill="#53360E"/>
<path d="M24.7061 131.6H20.8533V134.456H24.7061V131.6Z" fill="#633F02"/>
<path d="M23.5213 133.028C23.5213 133.511 23.1311 133.902 22.6486 133.902C22.1661 133.902 21.783 133.511 21.783 133.028C21.783 132.545 22.1732 132.154 22.6486 132.154C23.1311 132.154 23.5213 132.545 23.5213 133.028Z" fill="#999B9E"/>
<path d="M203.276 64.013H194.733V72.6807H203.276V64.013Z" fill="#231F20"/>
<path d="M204.503 56.141H192.945V67.0183H204.503V56.141Z" fill="#4F4F51"/>
<path d="M203.588 56.7876H193.832V66.4357H203.588V56.7876Z" fill="#222224"/>
<path d="M156.297 265.231H155.325V268.84H156.297V265.231Z" fill="#BE892D"/>
<path d="M160.072 265.231H159.1V268.84H160.072V265.231Z" fill="#BE892D"/>
<path d="M156.297 251.384H155.325V254.993H156.297V251.384Z" fill="#BE892D"/>
<path d="M160.072 251.384H159.1V254.993H160.072V251.384Z" fill="#BE892D"/>
<path d="M162.002 265.345L153.097 255.107L153.707 254.873L162.612 265.118L162.002 265.345Z" fill="#AA7A26"/>
<path d="M163.783 264.819H152.281V265.65H163.783V264.819Z" fill="#BE892D"/>
<path d="M163.783 254.574H152.281V255.406H163.783V254.574Z" fill="#BE892D"/>
<path d="M163.783 268.421H152.281V269.253H163.783V268.421Z" fill="#BE892D"/>
<path d="M153.707 251.384L153.097 251.15L162.357 240.905L162.967 241.146L153.707 251.384Z" fill="#AA7A26"/>
<path d="M163.783 250.851H152.281V251.683H163.783V250.851Z" fill="#BE892D"/>
<path d="M163.783 240.614H152.281V241.445H163.783V240.614Z" fill="#BE892D"/>
<path d="M156.297 237.424H155.325V241.026H156.297V237.424Z" fill="#BE892D"/>
<path d="M160.072 237.424H159.1V241.026H160.072V237.424Z" fill="#BE892D"/>
<path d="M156.297 223.577H155.325V227.179H156.297V223.577Z" fill="#BE892D"/>
<path d="M160.072 223.577H159.1V227.179H160.072V223.577Z" fill="#BE892D"/>
<path d="M162.002 237.537L153.097 227.299L153.707 227.065L162.612 237.303L162.002 237.537Z" fill="#AA7A26"/>
<path d="M163.783 237.004H152.281V237.836H163.783V237.004Z" fill="#BE892D"/>
<path d="M163.783 226.767H152.281V227.598H163.783V226.767Z" fill="#BE892D"/>
<path d="M153.707 223.577L153.097 223.335L162.357 213.097L162.967 213.332L153.707 223.577Z" fill="#AA7A26"/>
<path d="M163.783 223.037H152.281V223.868H163.783V223.037Z" fill="#BE892D"/>
<path d="M163.783 212.799H152.281V213.63H163.783V212.799Z" fill="#BE892D"/>
<path d="M156.297 209.772H155.325V213.381H156.297V209.772Z" fill="#BE892D"/>
<path d="M160.072 209.772H159.1V213.381H160.072V209.772Z" fill="#BE892D"/>
<path d="M156.297 195.925H155.325V199.534H156.297V195.925Z" fill="#BE892D"/>
<path d="M160.072 195.925H159.1V199.534H160.072V195.925Z" fill="#BE892D"/>
<path d="M162.002 209.886L153.097 199.648L153.707 199.414L162.612 209.651L162.002 209.886Z" fill="#AA7A26"/>
<path d="M163.783 209.353H152.281V210.184H163.783V209.353Z" fill="#BE892D"/>
<path d="M163.783 199.115H152.281V199.947H163.783V199.115Z" fill="#BE892D"/>
<path d="M153.707 195.925L153.097 195.684L162.357 185.446L162.967 185.687L153.707 195.925Z" fill="#AA7A26"/>
<path d="M163.783 195.392H152.281V196.224H163.783V195.392Z" fill="#BE892D"/>
<path d="M163.783 185.148H152.281V185.979H163.783V185.148Z" fill="#BE892D"/>
<path d="M156.297 181.957H155.325V185.56H156.297V181.957Z" fill="#BE892D"/>
<path d="M160.072 181.957H159.1V185.56H160.072V181.957Z" fill="#BE892D"/>
<path d="M156.297 168.111H155.325V171.72H156.297V168.111Z" fill="#BE892D"/>
<path d="M160.072 168.111H159.1V171.72H160.072V168.111Z" fill="#BE892D"/>
<path d="M162.002 182.078L153.097 171.833L153.707 171.606L162.612 181.844L162.002 182.078Z" fill="#AA7A26"/>
<path d="M163.783 181.545H152.281V182.377H163.783V181.545Z" fill="#BE892D"/>
<path d="M163.783 171.301H152.281V172.132H163.783V171.301Z" fill="#BE892D"/>
<path d="M153.707 168.111L153.097 167.876L162.357 157.631L162.967 157.873L153.707 168.111Z" fill="#AA7A26"/>
<path d="M163.783 167.578H152.281V168.409H163.783V167.578Z" fill="#BE892D"/>
<path d="M163.783 157.34H152.281V158.171H163.783V157.34Z" fill="#BE892D"/>
<path d="M156.297 154.15H155.325V157.752H156.297V154.15Z" fill="#BE892D"/>
<path d="M160.072 154.15H159.1V157.752H160.072V154.15Z" fill="#BE892D"/>
<path d="M156.297 140.303H155.325V143.905H156.297V140.303Z" fill="#BE892D"/>
<path d="M160.072 140.303H159.1V143.905H160.072V140.303Z" fill="#BE892D"/>
<path d="M162.002 154.264L153.097 144.026L153.707 143.791L162.612 154.029L162.002 154.264Z" fill="#AA7A26"/>
<path d="M163.783 153.731H152.281V154.562H163.783V153.731Z" fill="#BE892D"/>
<path d="M163.783 143.493H152.281V144.324H163.783V143.493Z" fill="#BE892D"/>
<path d="M153.707 140.303L153.097 140.061L162.357 129.823L162.967 130.065L153.707 140.303Z" fill="#AA7A26"/>
<path d="M163.783 139.77H152.281V140.601H163.783V139.77Z" fill="#BE892D"/>
<path d="M163.783 129.525H152.281V130.356H163.783V129.525Z" fill="#BE892D"/>
<path d="M156.297 126.335H155.325V129.944H156.297V126.335Z" fill="#BE892D"/>
<path d="M160.072 126.335H159.1V129.944H160.072V126.335Z" fill="#BE892D"/>
<path d="M156.297 112.495H155.325V116.097H156.297V112.495Z" fill="#BE892D"/>
<path d="M160.072 112.495H159.1V116.097H160.072V112.495Z" fill="#BE892D"/>
<path d="M162.002 126.456L153.097 116.211L153.707 115.984L162.612 126.221L162.002 126.456Z" fill="#AA7A26"/>
<path d="M163.783 125.923H152.281V126.754H163.783V125.923Z" fill="#BE892D"/>
<path d="M163.783 115.678H152.281V116.509H163.783V115.678Z" fill="#BE892D"/>
<path d="M153.707 112.495L153.097 112.254L162.357 102.009L162.967 102.25L153.707 112.495Z" fill="#AA7A26"/>
<path d="M163.783 111.955H152.281V112.787H163.783V111.955Z" fill="#BE892D"/>
<path d="M163.783 101.717H152.281V102.549H163.783V101.717Z" fill="#BE892D"/>
<path d="M156.297 98.6909H155.325V102.3H156.297V98.6909Z" fill="#BE892D"/>
<path d="M160.072 98.6909H159.1V102.3H160.072V98.6909Z" fill="#BE892D"/>
<path d="M156.297 84.8439H155.325V88.4459H156.297V84.8439Z" fill="#BE892D"/>
<path d="M160.072 84.8439H159.1V88.4459H160.072V84.8439Z" fill="#BE892D"/>
<path d="M162.002 98.8045L153.097 88.5667L153.707 88.3323L162.612 98.5701L162.002 98.8045Z" fill="#AA7A26"/>
<path d="M163.783 98.2717H152.281V99.1029H163.783V98.2717Z" fill="#BE892D"/>
<path d="M163.783 88.0339H152.281V88.8651H163.783V88.0339Z" fill="#BE892D"/>
<path d="M153.707 84.8439L153.097 84.6023L162.357 74.3645L162.967 74.599L153.707 84.8439Z" fill="#AA7A26"/>
<path d="M163.783 84.311H152.281V85.1423H163.783V84.311Z" fill="#BE892D"/>
<path d="M163.783 74.0661H152.281V74.8973H163.783V74.0661Z" fill="#BE892D"/>
<path d="M156.297 70.8761H155.325V74.4853H156.297V70.8761Z" fill="#BE892D"/>
<path d="M160.072 70.8761H159.1V74.4853H160.072V70.8761Z" fill="#BE892D"/>
<path d="M156.297 57.0291H155.325V60.6312H156.297V57.0291Z" fill="#BE892D"/>
<path d="M160.072 57.0291H159.1V60.6312H160.072V57.0291Z" fill="#BE892D"/>
<path d="M162.002 70.9898L153.097 60.752L153.707 60.5175L162.612 70.7624L162.002 70.9898Z" fill="#AA7A26"/>
<path d="M163.783 70.464H152.281V71.2953H163.783V70.464Z" fill="#BE892D"/>
<path d="M163.783 60.2191H152.281V61.0504H163.783V60.2191Z" fill="#BE892D"/>
<path d="M163.783 56.4963H152.281V57.3275H163.783V56.4963Z" fill="#BE892D"/>
<path d="M153.572 54.7983H151.217V275.569H153.572V54.7983Z" fill="#DFAF36"/>
<path d="M164.428 54.7983H162.066V275.569H164.428V54.7983Z" fill="#DFAF36"/>
<path d="M165.826 52.5887H149.244V57.0078H165.826V52.5887Z" fill="#B38E28"/>
<path d="M165.826 55.2103H149.244V57.0078H165.826V55.2103Z" fill="#B38E28"/>
<path d="M170.446 56.4963H141.943V62.2368H170.446V56.4963Z" fill="#B38E28"/>
<path d="M170.446 56.4963H141.943V59.3666H170.446V56.4963Z" fill="#5D4B0A"/>
<path d="M157.053 1.99688L21.9019 52.0506L22.3104 53.1567L157.462 3.10301L157.053 1.99688Z" fill="#5A5B5D"/>
<path d="M203.978 52.9937L157.603 3.38892L109.794 47.1821L108.999 46.3082L157.667 1.72643L204.844 52.1837L203.978 52.9937Z" fill="#5A5B5D"/>
<path d="M169.903 46.5165L163.59 55.733L163.976 55.9982L170.289 46.7817L169.903 46.5165Z" fill="#DC9134"/>
<path d="M162.824 44.5954L162.418 44.8433L169.598 56.6281L170.004 56.3802L162.824 44.5954Z" fill="#DC9134"/>
<path d="M205 57.086H21.5132V52.0345L22.0595 51.999L144.334 43.8144L162.726 43.8287L205 52.1056V57.086ZM22.691 55.9066H203.822V53.0718L162.555 44.9938H144.37L22.691 53.1429V55.9066Z" fill="#DC9134"/>
<path d="M163.776 55.2672C163.541 55.2672 163.336 55.0895 163.307 54.848L157.496 4.5754L151.685 54.848C151.657 55.1109 151.423 55.2956 151.16 55.2672C150.898 55.2387 150.713 55.0043 150.741 54.7414L157.021 0.419175C157.049 0.184721 157.248 0 157.489 0C157.73 0 157.929 0.177617 157.957 0.419175L164.237 54.7414C164.265 54.9972 164.081 55.2316 163.825 55.2672C163.818 55.2672 163.797 55.2672 163.776 55.2672Z" fill="#B38E28"/>
<path d="M162.491 44.1555H152.501C152.238 44.1555 152.033 43.9423 152.033 43.6866C152.033 43.4237 152.246 43.2106 152.501 43.2106H162.491C162.754 43.2106 162.96 43.4237 162.96 43.6866C162.967 43.9423 162.754 44.1555 162.491 44.1555Z" fill="#B38E28"/>
<path d="M161.157 32.241H154.105C153.842 32.241 153.636 32.0278 153.636 31.772C153.636 31.5092 153.849 31.296 154.105 31.296H161.157C161.42 31.296 161.626 31.5092 161.626 31.772C161.633 32.0278 161.42 32.241 161.157 32.241Z" fill="#B38E28"/>
<path d="M154.58 32.241C154.53 32.241 154.481 32.2339 154.431 32.2125C154.183 32.1273 154.055 31.8573 154.14 31.6157L159.022 17.2714C159.107 17.0228 159.377 16.8949 159.618 16.973C159.866 17.0583 159.994 17.3283 159.916 17.5698L155.034 31.9141C154.963 32.1131 154.779 32.241 154.58 32.241Z" fill="#B38E28"/>
<path d="M160.597 32.241C160.405 32.241 160.221 32.1202 160.15 31.9283L155.091 17.584C155.006 17.3354 155.133 17.0654 155.382 16.9801C155.63 16.8949 155.9 17.0228 155.985 17.2714L161.044 31.6157C161.129 31.8644 161.001 32.1344 160.753 32.2196C160.703 32.2338 160.646 32.241 160.597 32.241Z" fill="#B38E28"/>
<path d="M162.491 44.1555C162.342 44.1555 162.201 44.0844 162.108 43.9565L153.722 32.2836C153.573 32.0704 153.615 31.7792 153.828 31.6228C154.041 31.4737 154.332 31.5163 154.488 31.7294L162.875 43.4024C163.024 43.6155 162.981 43.9068 162.768 44.0631C162.683 44.12 162.591 44.1555 162.491 44.1555Z" fill="#B38E28"/>
<path d="M152.749 44.1555C152.657 44.1555 152.565 44.1271 152.487 44.0702C152.274 43.921 152.217 43.6297 152.366 43.4166L160.207 31.9141C160.356 31.701 160.646 31.6442 160.859 31.7934C161.072 31.9426 161.129 32.2339 160.98 32.447L153.14 43.9494C153.047 44.0773 152.905 44.1555 152.749 44.1555Z" fill="#B38E28"/>
<path d="M154.587 54.7698H144.54V56.4963H154.587V54.7698Z" fill="#473901"/>
<path d="M155.02 43.6795H143.462V55.864H155.02V43.6795Z" fill="#DFAF36"/>
<path d="M154.105 44.4041H144.349V55.2103H154.105V44.4041Z" fill="#E2C534"/>
<path d="M36.222 51.6793H35.0442V56.1055H36.222V51.6793Z" fill="#DC9134"/>
<path d="M50.3773 50.4502H49.1995V56.1055H50.3773V50.4502Z" fill="#DC9134"/>
<path d="M68.8536 49.4769H67.6758V56.1055H68.8536V49.4769Z" fill="#DC9134"/>
<path d="M105.728 47.0044H104.551V56.1055H105.728V47.0044Z" fill="#DC9134"/>
<path d="M130.967 45.342H129.789V56.1126H130.967V45.342Z" fill="#DC9134"/>
<path d="M170.68 45.7256H169.502V56.4892H170.68V45.7256Z" fill="#DC9134"/>
<path d="M183.65 48.4112H182.472V56.4963H183.65V48.4112Z" fill="#DC9134"/>
<path d="M183.16 56.7094L182.962 56.2831L194.761 50.8978L194.953 51.3241L183.16 56.7094Z" fill="#DC9134"/>
<path d="M195.095 56.3329L182.94 49.0932L183.182 48.6882L194.619 55.5016V51.1109H195.095V56.3329Z" fill="#DC9134"/>
<path d="M170.586 46.1145L170.295 46.4822L182.679 56.2969L182.97 55.9293L170.586 46.1145Z" fill="#DC9134"/>
<path d="M182.942 48.6747L169.967 55.8937L170.195 56.3035L183.169 49.0846L182.942 48.6747Z" fill="#DC9134"/>
<path d="M105.536 47.1418L105.379 47.5835L129.909 56.334L130.066 55.8922L105.536 47.1418Z" fill="#DC9134"/>
<path d="M130.29 45.7813L105.364 56.2759L105.549 56.7147L130.474 46.2201L130.29 45.7813Z" fill="#DC9134"/>
<path d="M130.785 45.5442L130.488 45.9159L143.936 56.6859L144.232 56.3141L130.785 45.5442Z" fill="#DC9134"/>
<path d="M143.939 44.5288L130.484 55.9177L130.791 56.2813L144.246 44.8923L143.939 44.5288Z" fill="#DC9134"/>
<path d="M85.257 48.6661L85.0928 49.1128L104.67 56.3274L104.834 55.8807L85.257 48.6661Z" fill="#DC9134"/>
<path d="M105.051 47.1421L84.8435 55.8965L85.0295 56.3269L105.237 47.5725L105.051 47.1421Z" fill="#DC9134"/>
<path d="M68.7397 49.594L68.5676 50.0301L84.4903 56.3303L84.6624 55.8942L68.7397 49.594Z" fill="#DC9134"/>
<path d="M85.7618 48.4112H84.584V56.4963H85.7618V48.4112Z" fill="#DC9134"/>
<path d="M68.7543 56.7165L68.5698 56.276L85.0808 49.2566L85.2653 49.6971L68.7543 56.7165Z" fill="#DC9134"/>
<path d="M50.2043 51.0245L50.0742 51.475L68.1975 56.723L68.3276 56.2725L50.2043 51.0245Z" fill="#DC9134"/>
<path d="M67.5742 49.559L50.291 56.2793L50.4631 56.723L67.7463 50.0027L67.5742 49.559Z" fill="#DC9134"/>
<path d="M35.9465 51.518L35.7891 51.9597L49.1138 56.7225L49.2713 56.2809L35.9465 51.518Z" fill="#DC9134"/>
<path d="M35.7181 56.7165L35.5479 56.276L50.0579 50.5923L50.2282 51.0328L35.7181 56.7165Z" fill="#DC9134"/>
<path d="M22.7868 52.5642L22.6477 53.0193L34.7379 56.7238L34.877 56.2686L22.7868 52.5642Z" fill="#DC9134"/>
<path d="M35.5536 51.4668L22.0183 56.274L22.1749 56.7159L35.7102 51.9087L35.5536 51.4668Z" fill="#DC9134"/>
<path d="M159.703 1.72643H155.545V5.88976H159.703V1.72643Z" fill="#473901"/>
<path d="M158.852 3.8081C158.852 4.50436 158.291 5.07273 157.589 5.07273C156.893 5.07273 156.333 4.51146 156.333 3.8081C156.333 3.11184 156.9 2.54347 157.589 2.54347C158.284 2.55057 158.852 3.11184 158.852 3.8081Z" fill="#B38E28"/>
<path d="M26.0613 54.642C26.0613 56.5247 24.5358 58.0522 22.6555 58.0522C20.7753 58.0522 19.2498 56.5247 19.2498 54.642C19.2498 52.7592 20.7753 51.2317 22.6555 51.2317C24.5358 51.2317 26.0613 52.7592 26.0613 54.642Z" fill="#E2C534"/>
<path d="M25.0823 54.642C25.0823 55.9847 23.9896 57.0789 22.6486 57.0789C21.3075 57.0789 20.2148 55.9847 20.2148 54.642C20.2148 53.2921 21.3075 52.2051 22.6486 52.2051C23.9967 52.2051 25.0823 53.2992 25.0823 54.642Z" fill="#633F02"/>
<path d="M24.1385 54.642C24.1385 55.4661 23.4715 56.1268 22.6555 56.1268C21.8325 56.1268 21.1726 55.459 21.1726 54.642C21.1726 53.8178 21.8396 53.1571 22.6555 53.1571C23.4715 53.1571 24.1385 53.8249 24.1385 54.642Z" fill="#DC9134"/>
<path d="M166.94 62.2368H149.564V66.4357H166.94V62.2368Z" fill="#231F20"/>
<path d="M173.291 269.515H142.419V278.766H173.291V269.515Z" fill="#5A5B5D"/>
<path d="M173.291 269.515H142.419V271.505H173.291V269.515Z" fill="#333536"/>
<g filter="url(#filter0_d_327_5846)">
<path d="M182.231 277.075H133.486V283H182.231V277.075Z" fill="#5A5B5D"/>
</g>
<path d="M182.231 277.075H133.486V278.346H182.231V277.075Z" fill="#333536"/>
</g>
<defs>
<filter id="filter0_d_327_5846" x="129.486" y="277.075" width="56.7454" height="13.9253" filterUnits="userSpaceOnUse" color-interpolation-filters="sRGB">
<feFlood flood-opacity="0" result="BackgroundImageFix"/>
<feColorMatrix in="SourceAlpha" type="matrix" values="0 0 0 0 0 0 0 0 0 0 0 0 0 0 0 0 0 0 127 0" result="hardAlpha"/>
<feOffset dy="4"/>
<feGaussianBlur stdDeviation="2"/>
<feComposite in2="hardAlpha" operator="out"/>
<feColorMatrix type="matrix" values="0 0 0 0 0 0 0 0 0 0 0 0 0 0 0 0 0 0 0.25 0"/>
<feBlend mode="normal" in2="BackgroundImageFix" result="effect1_dropShadow_327_5846"/>
<feBlend mode="normal" in="SourceGraphic" in2="effect1_dropShadow_327_5846" result="shape"/>
</filter>
<clipPath id="clip0_327_5846">
<rect width="205" height="283" fill="white"/>
</clipPath>
</defs>
</svg>
