<svg width="204" height="43" viewBox="0 0 204 43" fill="none" xmlns="http://www.w3.org/2000/svg">
<path fill-rule="evenodd" clip-rule="evenodd" d="M14.1766 28.8888C14.9202 20.4235 22.0278 13.7841 30.6862 13.7841C36.5661 13.7841 41.7308 16.846 44.6729 21.4623C44.7639 21.563 44.8492 21.6784 44.9273 21.8093C46.3177 24.1384 47.153 26.8372 47.2504 29.7232C47.2568 29.5308 47.26 29.3376 47.26 29.1437C47.26 24.5074 45.4112 20.3029 42.4106 17.2272C41.9591 16.7643 41.6807 16.1533 41.6807 15.5067V7.54846C41.6807 6.27966 40.6521 5.2511 39.3833 5.2511H28.0028C30.1027 7.14636 31.7152 9.57144 32.6295 12.3156C31.834 12.202 31.0208 12.1432 30.1939 12.1432C29.2222 12.1432 28.2694 12.2244 27.3419 12.3804C25.4355 8.544 21.4766 5.90748 16.902 5.90748C10.4674 5.90748 5.25109 11.1238 5.25109 17.5584C5.25109 23.0545 9.05671 27.6617 14.1766 28.8888ZM19.1136 28.9996C24.0555 28.05 27.8869 23.978 28.4746 18.9167C23.5327 19.8663 19.7013 23.9384 19.1136 28.9996ZM33.4116 19.0276C32.668 27.4928 25.5604 34.1322 16.902 34.1322C7.74853 34.1322 0.328174 26.7118 0.328174 17.5584L0.328206 17.5256L0.328174 17.4929C0.328174 15.989 0.528478 14.5318 0.903862 13.1467C0.31785 14.871 0 16.7191 0 18.6415C0 22.9764 1.6162 26.9338 4.27889 29.944C4.67928 30.3966 4.92289 30.9718 4.92289 31.5761V40.0397C4.92289 41.3085 5.95146 42.3371 7.22025 42.3371H19.2322C17.2988 40.4879 15.8123 38.1753 14.9511 35.5777C15.6442 35.6634 16.3501 35.7075 17.0664 35.7075C18.1335 35.7075 19.1777 35.6096 20.1905 35.4222C22.0748 39.3201 26.0665 42.0089 30.6862 42.0089C35.766 42.0089 40.0865 38.7579 41.6807 34.2231V26.4928C40.381 22.7958 37.2694 19.9521 33.4116 19.0276Z" fill="url(#paint0_linear_327_9799)"/>
<path d="M48.2195 9.77026V6.34388H64.3629V9.77026H58.3451V26H54.2373V9.77026H48.2195ZM67.0215 26V6.34388H71.1773V14.4539H79.6137V6.34388H83.7599V26H79.6137V17.8803H71.1773V26H67.0215ZM91.3421 6.34388V26H87.1863V6.34388H91.3421ZM105.424 11.9969C105.348 11.2227 105.018 10.6213 104.436 10.1926C103.853 9.76386 103.063 9.54951 102.065 9.54951C101.387 9.54951 100.814 9.64549 100.347 9.83745C99.88 10.023 99.5217 10.2821 99.2722 10.6149C99.029 10.9476 98.9075 11.3251 98.9075 11.7474C98.8947 12.0993 98.9683 12.4064 99.1282 12.6688C99.2946 12.9311 99.5217 13.1583 99.8097 13.3502C100.098 13.5358 100.43 13.6989 100.808 13.8397C101.185 13.9741 101.588 14.0892 102.017 14.1852L103.783 14.6075C104.641 14.7995 105.428 15.0554 106.144 15.3753C106.861 15.6953 107.481 16.0888 108.006 16.5558C108.531 17.0229 108.937 17.5732 109.225 18.2067C109.519 18.8401 109.67 19.5663 109.676 20.3853C109.67 21.5882 109.363 22.6312 108.755 23.5142C108.153 24.3908 107.283 25.0722 106.144 25.5585C105.012 26.0384 103.646 26.2783 102.046 26.2783C100.459 26.2783 99.077 26.0352 97.8997 25.5489C96.7288 25.0626 95.8138 24.3428 95.1548 23.3894C94.5021 22.4296 94.1598 21.2427 94.1278 19.8287H98.1493C98.194 20.4877 98.3828 21.038 98.7155 21.4795C99.0546 21.9146 99.5057 22.2441 100.069 22.468C100.638 22.6856 101.281 22.7944 101.998 22.7944C102.702 22.7944 103.313 22.692 103.831 22.4872C104.356 22.2825 104.762 21.9978 105.05 21.633C105.338 21.2683 105.482 20.8492 105.482 20.3757C105.482 19.9342 105.351 19.5631 105.088 19.2624C104.832 18.9617 104.455 18.7057 103.956 18.4946C103.463 18.2834 102.859 18.0915 102.142 17.9187L100.002 17.3813C98.3444 16.9781 97.0359 16.3479 96.0761 15.4905C95.1164 14.6331 94.6397 13.4782 94.6461 12.0257C94.6397 10.8356 94.9564 9.79586 95.5963 8.90647C96.2425 8.01708 97.1287 7.32284 98.2548 6.82376C99.381 6.32468 100.661 6.07514 102.094 6.07514C103.553 6.07514 104.826 6.32468 105.914 6.82376C107.008 7.32284 107.859 8.01708 108.467 8.90647C109.075 9.79586 109.388 10.826 109.407 11.9969H105.424ZM125.14 26V6.34388H129.296V22.5736H137.723V26H125.14ZM144.631 6.34388V26H140.475V6.34388H144.631ZM164.491 6.34388V26H160.902L152.35 13.6285H152.206V26H148.05V6.34388H151.697L160.182 18.7057H160.354V6.34388H164.491ZM167.925 26V6.34388H172.08V15.0106H172.34L179.413 6.34388H184.394L177.1 15.145L184.481 26H179.509L174.125 17.9187L172.08 20.4141V26H167.925ZM197.063 11.9969C196.987 11.2227 196.657 10.6213 196.075 10.1926C195.492 9.76386 194.702 9.54951 193.704 9.54951C193.026 9.54951 192.453 9.64549 191.986 9.83745C191.519 10.023 191.161 10.2821 190.911 10.6149C190.668 10.9476 190.546 11.3251 190.546 11.7474C190.534 12.0993 190.607 12.4064 190.767 12.6688C190.934 12.9311 191.161 13.1583 191.449 13.3502C191.737 13.5358 192.069 13.6989 192.447 13.8397C192.824 13.9741 193.227 14.0892 193.656 14.1852L195.422 14.6075C196.28 14.7995 197.067 15.0554 197.783 15.3753C198.5 15.6953 199.12 16.0888 199.645 16.5558C200.17 17.0229 200.576 17.5732 200.864 18.2067C201.158 18.8401 201.309 19.5663 201.315 20.3853C201.309 21.5882 201.002 22.6312 200.394 23.5142C199.792 24.3908 198.922 25.0722 197.783 25.5585C196.651 26.0384 195.285 26.2783 193.685 26.2783C192.098 26.2783 190.716 26.0352 189.539 25.5489C188.368 25.0626 187.453 24.3428 186.794 23.3894C186.141 22.4296 185.799 21.2427 185.767 19.8287H189.788C189.833 20.4877 190.022 21.038 190.355 21.4795C190.694 21.9146 191.145 22.2441 191.708 22.468C192.277 22.6856 192.92 22.7944 193.637 22.7944C194.341 22.7944 194.952 22.692 195.47 22.4872C195.995 22.2825 196.401 21.9978 196.689 21.633C196.977 21.2683 197.121 20.8492 197.121 20.3757C197.121 19.9342 196.99 19.5631 196.727 19.2624C196.471 18.9617 196.094 18.7057 195.595 18.4946C195.102 18.2834 194.498 18.0915 193.781 17.9187L191.641 17.3813C189.983 16.9781 188.675 16.3479 187.715 15.4905C186.755 14.6331 186.279 13.4782 186.285 12.0257C186.279 10.8356 186.595 9.79586 187.235 8.90647C187.882 8.01708 188.768 7.32284 189.894 6.82376C191.02 6.32468 192.3 6.07514 193.733 6.07514C195.192 6.07514 196.465 6.32468 197.553 6.82376C198.647 7.32284 199.498 8.01708 200.106 8.90647C200.714 9.79586 201.027 10.826 201.046 11.9969H197.063Z" fill="black"/>
<path d="M121.58 14.5499V17.794H112.615V14.5499H121.58Z" fill="#09BF2A"/>
<path d="M56.898 34.5762H55.762C55.7183 34.3335 55.637 34.1199 55.5181 33.9354C55.3992 33.7509 55.2535 33.5944 55.0812 33.4657C54.9089 33.3371 54.7159 33.24 54.5023 33.1745C54.2911 33.1089 54.0666 33.0762 53.8287 33.0762C53.3991 33.0762 53.0144 33.1842 52.6746 33.4002C52.3372 33.6162 52.0702 33.933 51.8736 34.3505C51.6795 34.7679 51.5824 35.2776 51.5824 35.8796C51.5824 36.4864 51.6795 36.9985 51.8736 37.416C52.0702 37.8335 52.3384 38.149 52.6782 38.3626C53.0181 38.5762 53.4003 38.683 53.8251 38.683C54.0605 38.683 54.2838 38.6515 54.495 38.5884C54.7086 38.5228 54.9016 38.427 55.0739 38.3007C55.2462 38.1745 55.3919 38.0204 55.5108 37.8384C55.6322 37.6539 55.7159 37.4427 55.762 37.2048L56.898 37.2085C56.8373 37.575 56.7196 37.9124 56.5448 38.2206C56.3725 38.5265 56.1504 38.791 55.8785 39.0143C55.6091 39.2352 55.3008 39.4063 54.9538 39.5277C54.6067 39.6491 54.228 39.7097 53.8178 39.7097C53.1722 39.7097 52.5969 39.5568 52.0921 39.251C51.5872 38.9427 51.1892 38.5022 50.8979 37.9294C50.6091 37.3566 50.4646 36.6733 50.4646 35.8796C50.4646 35.0835 50.6103 34.4002 50.9015 33.8298C51.1928 33.257 51.5909 32.8177 52.0957 32.5118C52.6006 32.2036 53.1746 32.0495 53.8178 32.0495C54.2135 32.0495 54.5824 32.1065 54.9246 32.2206C55.2693 32.3322 55.5788 32.4973 55.853 32.7157C56.1273 32.9317 56.3543 33.1963 56.5339 33.5094C56.7135 33.8201 56.8348 34.1757 56.898 34.5762ZM65.4388 35.8796C65.4388 36.6757 65.2932 37.3602 65.0019 37.933C64.7107 38.5034 64.3114 38.9427 63.8041 39.251C63.2992 39.5568 62.7252 39.7097 62.082 39.7097C61.4364 39.7097 60.8599 39.5568 60.3526 39.251C59.8478 38.9427 59.4497 38.5022 59.1584 37.9294C58.8672 37.3566 58.7215 36.6733 58.7215 35.8796C58.7215 35.0835 58.8672 34.4002 59.1584 33.8298C59.4497 33.257 59.8478 32.8177 60.3526 32.5118C60.8599 32.2036 61.4364 32.0495 62.082 32.0495C62.7252 32.0495 63.2992 32.2036 63.8041 32.5118C64.3114 32.8177 64.7107 33.257 65.0019 33.8298C65.2932 34.4002 65.4388 35.0835 65.4388 35.8796ZM64.3247 35.8796C64.3247 35.2728 64.2264 34.7619 64.0298 34.3468C63.8357 33.9293 63.5687 33.6138 63.2289 33.4002C62.8915 33.1842 62.5092 33.0762 62.082 33.0762C61.6524 33.0762 61.2689 33.1842 60.9315 33.4002C60.5941 33.6138 60.3271 33.9293 60.1305 34.3468C59.9363 34.7619 59.8393 35.2728 59.8393 35.8796C59.8393 36.4864 59.9363 36.9985 60.1305 37.416C60.3271 37.8311 60.5941 38.1466 60.9315 38.3626C61.2689 38.5762 61.6524 38.683 62.082 38.683C62.5092 38.683 62.8915 38.5762 63.2289 38.3626C63.5687 38.1466 63.8357 37.8311 64.0298 37.416C64.2264 36.9985 64.3247 36.4864 64.3247 35.8796ZM73.5774 32.1514V39.6078H72.5434L68.7533 34.1393H68.6841V39.6078H67.5591V32.1514H68.6004L72.3941 37.6272H72.4633V32.1514H73.5774ZM80.003 34.1102C79.9641 33.7655 79.8039 33.4985 79.5224 33.3092C79.2408 33.1174 78.8865 33.0216 78.4593 33.0216C78.1534 33.0216 77.8889 33.0701 77.6656 33.1672C77.4423 33.2618 77.2687 33.3929 77.1449 33.5604C77.0236 33.7254 76.9629 33.9136 76.9629 34.1247C76.9629 34.3019 77.0042 34.4548 77.0867 34.5835C77.1716 34.7121 77.2821 34.8201 77.418 34.9075C77.5563 34.9924 77.7044 35.0641 77.8622 35.1223C78.0199 35.1781 78.1716 35.2242 78.3173 35.2607L79.0454 35.45C79.2833 35.5082 79.5272 35.5871 79.7772 35.6866C80.0272 35.7861 80.259 35.9172 80.4726 36.0798C80.6862 36.2425 80.8586 36.4439 80.9896 36.6842C81.1231 36.9245 81.1899 37.2121 81.1899 37.5471C81.1899 37.9694 81.0807 38.3444 80.8622 38.6721C80.6462 38.9998 80.3319 39.2583 79.9192 39.4476C79.509 39.6369 79.0127 39.7316 78.4301 39.7316C77.8719 39.7316 77.3889 39.643 76.9811 39.4658C76.5733 39.2886 76.2541 39.0374 76.0236 38.7121C75.793 38.3845 75.6655 37.9961 75.6413 37.5471H76.7699C76.7918 37.8165 76.8791 38.041 77.0321 38.2206C77.1874 38.3978 77.3852 38.5301 77.6255 38.6175C77.8682 38.7024 78.134 38.7449 78.4229 38.7449C78.7408 38.7449 79.0236 38.6952 79.2712 38.5956C79.5212 38.4937 79.7178 38.3529 79.861 38.1733C80.0042 37.9913 80.0758 37.7789 80.0758 37.5362C80.0758 37.3153 80.0127 37.1345 79.8865 36.9937C79.7627 36.8529 79.594 36.7364 79.3804 36.6442C79.1692 36.5519 78.9301 36.4706 78.6631 36.4002L77.7821 36.1599C77.185 35.9973 76.7117 35.7582 76.3622 35.4427C76.0151 35.1272 75.8415 34.7097 75.8415 34.1903C75.8415 33.7606 75.958 33.3856 76.191 33.0652C76.424 32.7449 76.7396 32.4961 77.1376 32.3189C77.5357 32.1393 77.9847 32.0495 78.4847 32.0495C78.9896 32.0495 79.435 32.138 79.8209 32.3152C80.2093 32.4924 80.5151 32.7364 80.7384 33.047C80.9617 33.3553 81.0782 33.7097 81.0879 34.1102H80.003ZM82.8842 33.1199V32.1514H88.6549V33.1199H86.3284V39.6078H85.207V33.1199H82.8842ZM90.6478 39.6078V32.1514H93.3056C93.8832 32.1514 94.3626 32.2509 94.7437 32.4499C95.1272 32.649 95.4136 32.9245 95.6029 33.2764C95.7922 33.6259 95.8869 34.0301 95.8869 34.4888C95.8869 34.9451 95.791 35.3468 95.5993 35.6939C95.41 36.0386 95.1235 36.3068 94.74 36.4985C94.359 36.6903 93.8796 36.7862 93.3019 36.7862H91.2885V35.8177H93.2C93.5641 35.8177 93.8602 35.7655 94.0883 35.6611C94.3189 35.5568 94.4876 35.4051 94.5944 35.206C94.7012 35.007 94.7546 34.7679 94.7546 34.4888C94.7546 34.2072 94.7 33.9633 94.5908 33.757C94.484 33.5507 94.3153 33.3929 94.0847 33.2837C93.8565 33.172 93.5568 33.1162 93.1854 33.1162H91.7728V39.6078H90.6478ZM94.3286 36.2437L96.1709 39.6078H94.8893L93.0835 36.2437H94.3286ZM102.768 32.1514H103.897V37.0556C103.897 37.5774 103.775 38.0398 103.529 38.4427C103.284 38.8432 102.94 39.1588 102.495 39.3893C102.051 39.6175 101.531 39.7316 100.934 39.7316C100.339 39.7316 99.8194 39.6175 99.3752 39.3893C98.9311 39.1588 98.5864 38.8432 98.3412 38.4427C98.0961 38.0398 97.9735 37.5774 97.9735 37.0556V32.1514H99.0985V36.9646C99.0985 37.3019 99.1726 37.6017 99.3206 37.8638C99.4711 38.126 99.6835 38.3323 99.9578 38.4828C100.232 38.6308 100.557 38.7049 100.934 38.7049C101.312 38.7049 101.639 38.6308 101.913 38.4828C102.19 38.3323 102.401 38.126 102.546 37.8638C102.694 37.6017 102.768 37.3019 102.768 36.9646V32.1514ZM112.443 34.5762H111.308C111.264 34.3335 111.183 34.1199 111.064 33.9354C110.945 33.7509 110.799 33.5944 110.627 33.4657C110.454 33.3371 110.261 33.24 110.048 33.1745C109.837 33.1089 109.612 33.0762 109.374 33.0762C108.945 33.0762 108.56 33.1842 108.22 33.4002C107.883 33.6162 107.616 33.933 107.419 34.3505C107.225 34.7679 107.128 35.2776 107.128 35.8796C107.128 36.4864 107.225 36.9985 107.419 37.416C107.616 37.8335 107.884 38.149 108.224 38.3626C108.564 38.5762 108.946 38.683 109.371 38.683C109.606 38.683 109.829 38.6515 110.041 38.5884C110.254 38.5228 110.447 38.427 110.619 38.3007C110.792 38.1745 110.937 38.0204 111.056 37.8384C111.178 37.6539 111.261 37.4427 111.308 37.2048L112.443 37.2085C112.383 37.575 112.265 37.9124 112.09 38.2206C111.918 38.5265 111.696 38.791 111.424 39.0143C111.155 39.2352 110.846 39.4063 110.499 39.5277C110.152 39.6491 109.774 39.7097 109.363 39.7097C108.718 39.7097 108.142 39.5568 107.638 39.251C107.133 38.9427 106.735 38.5022 106.443 37.9294C106.155 37.3566 106.01 36.6733 106.01 35.8796C106.01 35.0835 106.156 34.4002 106.447 33.8298C106.738 33.257 107.136 32.8177 107.641 32.5118C108.146 32.2036 108.72 32.0495 109.363 32.0495C109.759 32.0495 110.128 32.1065 110.47 32.2206C110.815 32.3322 111.124 32.4973 111.399 32.7157C111.673 32.9317 111.9 33.1963 112.079 33.5094C112.259 33.8201 112.38 34.1757 112.443 34.5762ZM114.14 33.1199V32.1514H119.91V33.1199H117.584V39.6078H116.462V33.1199H114.14ZM123.028 32.1514V39.6078H121.903V32.1514H123.028ZM131.861 35.8796C131.861 36.6757 131.716 37.3602 131.424 37.933C131.133 38.5034 130.734 38.9427 130.227 39.251C129.722 39.5568 129.148 39.7097 128.504 39.7097C127.859 39.7097 127.282 39.5568 126.775 39.251C126.27 38.9427 125.872 38.5022 125.581 37.9294C125.29 37.3566 125.144 36.6733 125.144 35.8796C125.144 35.0835 125.29 34.4002 125.581 33.8298C125.872 33.257 126.27 32.8177 126.775 32.5118C127.282 32.2036 127.859 32.0495 128.504 32.0495C129.148 32.0495 129.722 32.2036 130.227 32.5118C130.734 32.8177 131.133 33.257 131.424 33.8298C131.716 34.4002 131.861 35.0835 131.861 35.8796ZM130.747 35.8796C130.747 35.2728 130.649 34.7619 130.452 34.3468C130.258 33.9293 129.991 33.6138 129.651 33.4002C129.314 33.1842 128.932 33.0762 128.504 33.0762C128.075 33.0762 127.691 33.1842 127.354 33.4002C127.017 33.6138 126.75 33.9293 126.553 34.3468C126.359 34.7619 126.262 35.2728 126.262 35.8796C126.262 36.4864 126.359 36.9985 126.553 37.416C126.75 37.8311 127.017 38.1466 127.354 38.3626C127.691 38.5762 128.075 38.683 128.504 38.683C128.932 38.683 129.314 38.5762 129.651 38.3626C129.991 38.1466 130.258 37.8311 130.452 37.416C130.649 36.9985 130.747 36.4864 130.747 35.8796ZM140 32.1514V39.6078H138.966L135.176 34.1393H135.107V39.6078H133.982V32.1514H135.023L138.817 37.6272H138.886V32.1514H140ZM151.983 34.5762H150.847C150.803 34.3335 150.722 34.1199 150.603 33.9354C150.484 33.7509 150.338 33.5944 150.166 33.4657C149.994 33.3371 149.801 33.24 149.587 33.1745C149.376 33.1089 149.151 33.0762 148.913 33.0762C148.484 33.0762 148.099 33.1842 147.759 33.4002C147.422 33.6162 147.155 33.933 146.958 34.3505C146.764 34.7679 146.667 35.2776 146.667 35.8796C146.667 36.4864 146.764 36.9985 146.958 37.416C147.155 37.8335 147.423 38.149 147.763 38.3626C148.103 38.5762 148.485 38.683 148.91 38.683C149.145 38.683 149.369 38.6515 149.58 38.5884C149.793 38.5228 149.986 38.427 150.159 38.3007C150.331 38.1745 150.477 38.0204 150.595 37.8384C150.717 37.6539 150.801 37.4427 150.847 37.2048L151.983 37.2085C151.922 37.575 151.804 37.9124 151.629 38.2206C151.457 38.5265 151.235 38.791 150.963 39.0143C150.694 39.2352 150.386 39.4063 150.038 39.5277C149.691 39.6491 149.313 39.7097 148.902 39.7097C148.257 39.7097 147.682 39.5568 147.177 39.251C146.672 38.9427 146.274 38.5022 145.983 37.9294C145.694 37.3566 145.549 36.6733 145.549 35.8796C145.549 35.0835 145.695 34.4002 145.986 33.8298C146.277 33.257 146.676 32.8177 147.18 32.5118C147.685 32.2036 148.259 32.0495 148.902 32.0495C149.298 32.0495 149.667 32.1065 150.009 32.2206C150.354 32.3322 150.663 32.4973 150.938 32.7157C151.212 32.9317 151.439 33.1963 151.619 33.5094C151.798 33.8201 151.92 34.1757 151.983 34.5762ZM160.524 35.8796C160.524 36.6757 160.378 37.3602 160.087 37.933C159.795 38.5034 159.396 38.9427 158.889 39.251C158.384 39.5568 157.81 39.7097 157.167 39.7097C156.521 39.7097 155.945 39.5568 155.437 39.251C154.932 38.9427 154.534 38.5022 154.243 37.9294C153.952 37.3566 153.806 36.6733 153.806 35.8796C153.806 35.0835 153.952 34.4002 154.243 33.8298C154.534 33.257 154.932 32.8177 155.437 32.5118C155.945 32.2036 156.521 32.0495 157.167 32.0495C157.81 32.0495 158.384 32.2036 158.889 32.5118C159.396 32.8177 159.795 33.257 160.087 33.8298C160.378 34.4002 160.524 35.0835 160.524 35.8796ZM159.409 35.8796C159.409 35.2728 159.311 34.7619 159.115 34.3468C158.92 33.9293 158.653 33.6138 158.314 33.4002C157.976 33.1842 157.594 33.0762 157.167 33.0762C156.737 33.0762 156.354 33.1842 156.016 33.4002C155.679 33.6138 155.412 33.9293 155.215 34.3468C155.021 34.7619 154.924 35.2728 154.924 35.8796C154.924 36.4864 155.021 36.9985 155.215 37.416C155.412 37.8311 155.679 38.1466 156.016 38.3626C156.354 38.5762 156.737 38.683 157.167 38.683C157.594 38.683 157.976 38.5762 158.314 38.3626C158.653 38.1466 158.92 37.8311 159.115 37.416C159.311 36.9985 159.409 36.4864 159.409 35.8796ZM162.644 32.1514H164.009L166.383 37.9476H166.47L168.844 32.1514H170.209V39.6078H169.139V34.2121H169.07L166.871 39.5969H165.982L163.783 34.2085H163.714V39.6078H162.644V32.1514ZM172.563 39.6078V32.1514H175.221C175.801 32.1514 176.281 32.257 176.662 32.4681C177.043 32.6793 177.329 32.9682 177.518 33.3347C177.707 33.6987 177.802 34.1089 177.802 34.5653C177.802 35.024 177.706 35.4366 177.514 35.8031C177.325 36.1672 177.039 36.4561 176.655 36.6696C176.274 36.8808 175.795 36.9864 175.217 36.9864H173.389V36.0325H175.115C175.481 36.0325 175.779 35.9694 176.007 35.8432C176.235 35.7145 176.403 35.5398 176.509 35.3189C176.616 35.098 176.67 34.8468 176.67 34.5653C176.67 34.2837 176.616 34.0337 176.509 33.8153C176.403 33.5968 176.234 33.4257 176.003 33.3019C175.775 33.1781 175.474 33.1162 175.1 33.1162H173.688V39.6078H172.563ZM179.677 39.6078H178.483L181.166 32.1514H182.466L185.149 39.6078H183.955L181.847 33.5058H181.789L179.677 39.6078ZM179.878 36.6879H183.751V37.6345H179.878V36.6879ZM192.962 32.1514V39.6078H191.928L188.138 34.1393H188.069V39.6078H186.944V32.1514H187.985L191.779 37.6272H191.848V32.1514H192.962ZM194.746 32.1514H196.024L197.971 35.541H198.052L199.999 32.1514H201.277L198.572 36.6806V39.6078H197.451V36.6806L194.746 32.1514Z" fill="#09BF2A"/>
<defs>
<linearGradient id="paint0_linear_327_9799" x1="0" y1="5.2511" x2="15.5022" y2="45.4699" gradientUnits="userSpaceOnUse">
<stop stop-color="#025C13"/>
<stop offset="0.380378" stop-color="#0DB82C"/>
<stop offset="0.599728" stop-color="#06C428"/>
<stop offset="0.799768" stop-color="#0BA226"/>
<stop offset="1" stop-color="#006A13"/>
</linearGradient>
</defs>
</svg>
