<svg width="52" height="52" viewBox="0 0 52 52" fill="none" xmlns="http://www.w3.org/2000/svg">
<path d="M38.8408 2.41406L39.0713 2.42578C40.2092 2.54177 41.0986 3.50582 41.0986 4.67383L41.0996 20.1143C41.0995 20.5471 40.7487 20.8984 40.3145 20.8984C39.8816 20.8982 39.5303 20.5474 39.5303 20.1143V4.67383C39.5303 4.29331 39.221 3.98362 38.8408 3.9834L5.30664 3.98242C4.9261 3.98247 4.61621 4.29327 4.61621 4.67383V47.3281C4.61621 47.7088 4.92612 48.0185 5.30664 48.0186H37.4189C37.8522 48.0186 38.2041 48.3705 38.2041 48.8037C38.2039 49.2097 37.8945 49.5441 37.499 49.584L37.4189 49.5879H5.30664C4.06088 49.5879 3.04688 48.5742 3.04688 47.3281V4.67383C3.04688 3.42789 4.06085 2.41406 5.30664 2.41406H38.8408Z" fill="white" stroke="white" stroke-width="0.5"/>
<path fill-rule="evenodd" clip-rule="evenodd" d="M31.6218 13.0922H12.3313C12.0363 13.0922 11.7969 12.8531 11.7969 12.5579C11.7969 12.2627 12.0363 12.0235 12.3313 12.0235L31.6218 12.0234C31.9169 12.0234 32.1562 12.2628 32.1562 12.5579C32.1562 12.853 31.9168 13.0923 31.6218 13.0922Z" fill="white"/>
<path fill-rule="evenodd" clip-rule="evenodd" d="M29.775 31.0219H12.4328C12.1379 31.0219 11.8984 30.7827 11.8984 30.4876C11.8984 30.1923 12.1378 29.9532 12.4328 29.9532L29.775 29.9531C30.0701 29.9531 30.3094 30.1925 30.3094 30.4876C30.3094 30.7827 30.07 31.022 29.775 31.0219Z" fill="white"/>
<path fill-rule="evenodd" clip-rule="evenodd" d="M26.7574 39.9829H12.5344C12.2394 39.9829 12 39.7438 12 39.4486C12 39.1535 12.2394 38.9142 12.5344 38.9142L26.7574 38.9141C27.0524 38.9141 27.2917 39.1535 27.2917 39.4486C27.2918 39.7436 27.0524 39.983 26.7574 39.9829Z" fill="white"/>
<path fill-rule="evenodd" clip-rule="evenodd" d="M31.4534 22.0532H12.4328C12.1379 22.0532 11.8984 21.8139 11.8984 21.5188C11.8984 21.2236 12.1378 20.9844 12.4328 20.9844L31.4534 20.9844C31.7484 20.9844 31.9877 21.2237 31.9877 21.5188C31.9878 21.8137 31.7484 22.0532 31.4534 22.0532Z" fill="white"/>
<path d="M37.9736 17.4434C38.7885 17.4434 39.4512 18.107 39.4512 18.9219V19.0332C39.8902 19.1661 40.3139 19.3415 40.7188 19.5586L40.7988 19.4795C41.0775 19.2013 41.4489 19.0479 41.8438 19.0479C42.2385 19.0478 42.6109 19.2011 42.8887 19.4795L43.6719 20.2627C44.2479 20.8389 44.2478 21.7764 43.6719 22.3525L43.5918 22.4316C43.8095 22.837 43.986 23.2607 44.1191 23.7002H44.2295C45.0452 23.7002 45.7068 24.3631 45.707 25.1777V26.2861C45.7068 27.1008 45.0452 27.7637 44.2295 27.7637H44.1182C43.9729 28.2436 43.778 28.7078 43.5322 29.1475C43.3703 29.4354 43.0307 29.5617 42.7275 29.4648L42.6006 29.4102C42.2704 29.2255 42.1527 28.8083 42.3369 28.4785L42.4355 28.2949C42.6564 27.8637 42.8201 27.4066 42.9229 26.9336L42.958 26.8203C43.0617 26.5668 43.3099 26.3945 43.5918 26.3945H44.2295C44.2873 26.3945 44.3387 26.3437 44.3389 26.2861V25.1777C44.3386 25.1202 44.2874 25.0693 44.2295 25.0693H43.5928C43.3112 25.0693 43.0613 24.8977 42.958 24.6436L42.9238 24.5303C42.7811 23.8754 42.5243 23.2568 42.1611 22.6914C41.9867 22.4207 42.024 22.0647 42.252 21.8369L42.7041 21.3848C42.7448 21.3439 42.7448 21.2711 42.7041 21.2305L41.9219 20.4482L41.8799 20.4219C41.8663 20.4174 41.8535 20.417 41.8438 20.417H41.8428C41.8241 20.417 41.7922 20.4215 41.7666 20.4473L41.3154 20.8994H41.3145C41.115 21.0983 40.8182 21.1533 40.5654 21.0469L40.4609 20.9912C39.8953 20.6275 39.2762 20.3708 38.6221 20.2285C38.3075 20.1601 38.082 19.8818 38.082 19.5596L38.083 18.9219C38.083 18.8646 38.031 18.8125 37.9736 18.8125H36.8662C36.8089 18.8125 36.7568 18.8645 36.7568 18.9219V19.5596C36.7568 19.8817 36.5325 20.1602 36.2178 20.2285C35.5637 20.3708 34.9447 20.6274 34.3789 20.9912C34.1083 21.1652 33.7517 21.1274 33.5244 20.8994L33.0732 20.4482C33.0597 20.4348 33.045 20.4263 33.0312 20.4219L32.9951 20.417C32.9766 20.417 32.9447 20.4215 32.9189 20.4473L32.1357 21.2305C32.1094 21.2569 32.1045 21.2891 32.1045 21.3076C32.1045 21.3262 32.1094 21.3582 32.1357 21.3848L32.5869 21.8369C32.7865 22.0363 32.841 22.3333 32.7344 22.5859L32.6787 22.6914C32.3602 23.1861 32.1237 23.7215 31.9746 24.2861L31.916 24.5303C31.8473 24.8445 31.5692 25.0693 31.2471 25.0693H30.6094C30.5522 25.0693 30.5002 25.1206 30.5 25.1777V26.2861C30.5002 26.3434 30.5523 26.3945 30.6094 26.3945H31.2471C31.529 26.3945 31.7772 26.5667 31.8809 26.8203L31.916 26.9336C32.0336 27.4747 32.2309 27.9946 32.502 28.4785C32.6872 28.8082 32.5692 29.2256 32.2393 29.4102C32.1339 29.4691 32.0184 29.4972 31.9053 29.4971C31.6954 29.4971 31.4913 29.4008 31.3594 29.2266L31.3076 29.1475C31.0619 28.708 30.8662 28.2439 30.7207 27.7637H30.6094C29.7947 27.7637 29.131 27.1009 29.1309 26.2861V25.1777C29.1311 24.3631 29.7939 23.7005 30.6084 23.7002H30.7207C30.8539 23.2609 31.0294 22.837 31.2471 22.4316L31.167 22.3525C30.8893 22.0743 30.7354 21.7025 30.7354 21.3076C30.7355 20.9127 30.8894 20.5409 31.167 20.2627L31.9502 19.4795C32.2289 19.2013 32.6002 19.0479 32.9951 19.0479L33.1416 19.0547C33.4813 19.0877 33.7968 19.2358 34.04 19.4795L34.1191 19.5586C34.5245 19.3412 34.9491 19.1662 35.3887 19.0332V18.9209C35.389 18.1062 36.0516 17.4443 36.8662 17.4443L37.9736 17.4434Z" fill="white" stroke="white" stroke-width="0.3"/>
<path fill-rule="evenodd" clip-rule="evenodd" d="M40.6163 28.311C40.517 28.311 40.4177 28.2838 40.3277 28.2266C40.08 28.0672 40.0076 27.7368 40.1663 27.4884C40.5021 26.9648 40.6793 26.3579 40.6793 25.7333C40.6794 23.9366 39.2171 22.4751 37.4209 22.4751C35.6239 22.475 34.1626 23.9367 34.1626 25.7333C34.1627 26.3579 34.3398 26.9649 34.6756 27.4884C34.8343 27.7368 34.7619 28.0674 34.5133 28.2266C34.2656 28.3855 33.9343 28.3135 33.7757 28.0649C33.3294 27.3691 33.0938 26.5628 33.0938 25.7333C33.0939 23.3473 35.0347 21.4063 37.4209 21.4063C39.8064 21.4062 41.7481 23.3474 41.7481 25.7333C41.7482 26.5625 41.5125 27.3691 41.0662 28.0649C40.9642 28.2242 40.7916 28.3112 40.6163 28.311Z" fill="white"/>
<path fill-rule="evenodd" clip-rule="evenodd" d="M37.425 30.1869C37.1301 30.1869 36.8906 29.9478 36.8906 29.6527V27.2921C36.8906 26.997 37.13 26.7578 37.425 26.7578C37.7201 26.7577 37.9594 26.997 37.9594 27.2921V29.6527C37.9594 29.9477 37.7201 30.187 37.425 30.1869Z" fill="white"/>
<path fill-rule="evenodd" clip-rule="evenodd" d="M41.6198 31.3084C41.5298 31.3084 41.4378 31.2856 41.3534 31.2369C41.0974 31.0894 41.0101 30.7626 41.1577 30.507L42.3379 28.4627C42.4854 28.207 42.8119 28.1193 43.068 28.2671C43.3232 28.4145 43.4113 28.7415 43.2638 28.9971L42.0836 31.0412C41.9844 31.2128 41.8043 31.3086 41.6198 31.3084Z" fill="white"/>
<path fill-rule="evenodd" clip-rule="evenodd" d="M44.691 34.382C44.5064 34.382 44.3263 34.2863 44.228 34.1148C44.0805 33.859 44.1677 33.5324 44.4228 33.3848L46.4677 32.2045C46.7228 32.0569 47.0503 32.1445 47.1978 32.4002C47.3454 32.6556 47.2572 32.9826 47.002 33.1301L44.9573 34.3104C44.8738 34.3588 44.7818 34.3821 44.691 34.382Z" fill="white"/>
<path fill-rule="evenodd" clip-rule="evenodd" d="M48.176 38.5844H45.8157C45.5207 38.5844 45.2812 38.3452 45.2812 38.0501C45.2813 37.7548 45.5207 37.5157 45.8157 37.5157L48.176 37.5156C48.471 37.5156 48.7104 37.755 48.7104 38.0501C48.7104 38.3452 48.471 38.5845 48.176 38.5844Z" fill="white"/>
<path fill-rule="evenodd" clip-rule="evenodd" d="M46.734 43.9601C46.644 43.9601 46.5521 43.9372 46.4676 43.8886L44.4229 42.7082C44.1677 42.5608 44.0805 42.234 44.228 41.9784C44.3755 41.7227 44.7021 41.635 44.9572 41.7827L47.0021 42.9629C47.2572 43.1103 47.3453 43.4373 47.1978 43.6929C47.0986 43.8643 46.9186 43.9602 46.734 43.9601Z" fill="white"/>
<path fill-rule="evenodd" clip-rule="evenodd" d="M42.8017 47.9021C42.6161 47.9021 42.437 47.8064 42.3378 47.635L41.1577 45.5908C41.0102 45.3351 41.0973 45.0084 41.3534 44.8607C41.6085 44.7132 41.936 44.8007 42.0835 45.0564L43.2637 47.1005C43.4112 47.356 43.3231 47.683 43.0679 47.8307C42.9835 47.8791 42.8916 47.9023 42.8017 47.9021Z" fill="white"/>
<path fill-rule="evenodd" clip-rule="evenodd" d="M37.425 49.3432C37.1301 49.3432 36.8906 49.1041 36.8906 48.809V46.4483C36.8906 46.1531 37.13 45.9141 37.425 45.9141C37.7201 45.9139 37.9594 46.1532 37.9594 46.4485V48.8088C37.9594 49.104 37.7201 49.3434 37.425 49.3432Z" fill="white"/>
<path fill-rule="evenodd" clip-rule="evenodd" d="M32.0495 47.8944C31.9584 47.8944 31.8666 47.8715 31.7831 47.8229C31.5271 47.6752 31.4398 47.3485 31.5873 47.0929L32.7676 45.0487C32.915 44.793 33.2416 44.7053 33.4976 44.853C33.7529 45.0005 33.8409 45.3275 33.6934 45.5831L32.5133 47.6272C32.414 47.7986 32.234 47.8945 32.0495 47.8944Z" fill="white"/>
<path fill-rule="evenodd" clip-rule="evenodd" d="M28.1128 43.9602C27.9282 43.9602 27.7491 43.8645 27.6498 43.693C27.5023 43.4373 27.5895 43.1106 27.8456 42.9631L29.8895 41.7827C30.1457 41.6349 30.4722 41.7228 30.6197 41.9785C30.7672 42.234 30.68 42.5609 30.4239 42.7084L28.38 43.8886C28.2956 43.9372 28.2037 43.9603 28.1128 43.9602Z" fill="white"/>
<path fill-rule="evenodd" clip-rule="evenodd" d="M29.0276 38.5844H26.6673C26.3722 38.5844 26.1328 38.3452 26.1328 38.0501C26.1329 37.7548 26.3722 37.5157 26.6672 37.5157L29.0276 37.5156C29.3226 37.5156 29.5619 37.755 29.5619 38.0501C29.562 38.3452 29.3225 38.5845 29.0276 38.5844Z" fill="white"/>
<path fill-rule="evenodd" clip-rule="evenodd" d="M30.1567 34.382C30.0658 34.382 29.9739 34.359 29.8895 34.3104L27.8456 33.1301C27.5896 32.9825 27.5023 32.6558 27.6498 32.4002C27.7974 32.1444 28.1239 32.0569 28.38 32.2046L30.4239 33.3848C30.6801 33.5322 30.7672 33.8592 30.6197 34.1148C30.5205 34.2862 30.3413 34.3821 30.1567 34.382Z" fill="white"/>
<path fill-rule="evenodd" clip-rule="evenodd" d="M33.2304 31.3083C33.0458 31.3083 32.8667 31.2127 32.7675 31.0413L31.5873 28.997C31.4399 28.7413 31.527 28.4146 31.7831 28.267C32.0383 28.1194 32.3648 28.207 32.5132 28.4626L33.6935 30.5067C33.8409 30.7624 33.7527 31.0892 33.4976 31.2368C33.4132 31.2854 33.3213 31.3085 33.2304 31.3083Z" fill="white"/>
<path fill-rule="evenodd" clip-rule="evenodd" d="M35.9095 41.0206C35.8186 41.0206 35.7267 40.9977 35.6423 40.9491C35.3872 40.8014 35.299 40.4746 35.4465 40.2191L36.7817 37.9066V32.9328C36.7817 32.6376 37.0209 32.3984 37.316 32.3984C37.611 32.3983 37.8504 32.6377 37.8504 32.9328L37.8505 38.0499C37.8505 38.1436 37.8263 38.2359 37.7789 38.3171L36.3725 40.7532C36.2733 40.9248 36.0941 41.0207 35.9095 41.0206Z" fill="white"/>
<path d="M37.4238 26.5078C43.7882 26.5078 48.9646 31.6849 48.9648 38.0488C48.9649 44.413 43.7883 49.5909 37.4238 49.5908C31.0595 49.5908 25.8828 44.413 25.8828 38.0488L25.8867 37.752C26.045 31.5245 31.1588 26.5079 37.4238 26.5078ZM37.4238 28.0762C31.925 28.0762 27.4514 32.5503 27.4512 38.0488C27.4513 43.5474 31.9248 48.0214 37.4238 48.0215C42.9221 48.0213 47.3965 43.5476 47.3965 38.0488C47.3963 32.5503 42.9219 28.0762 37.4238 28.0762Z" fill="white" stroke="white" stroke-width="0.5"/>
</svg>
