<svg width="46" height="46" viewBox="0 0 46 46" fill="none" xmlns="http://www.w3.org/2000/svg">
<path fill-rule="evenodd" clip-rule="evenodd" d="M22.7858 0C10.2144 0 0 10.2144 0 22.7858C0 35.3572 10.2147 45.5787 22.7869 45.5717C27.4557 45.569 32.0068 44.1187 35.8264 41.4392C35.9474 41.3592 36.0511 41.2558 36.1314 41.135C36.2117 41.0143 36.267 40.8786 36.294 40.7361C36.3211 40.5937 36.3192 40.4472 36.2887 40.3054C36.2581 40.1637 36.1995 40.0295 36.1162 39.9107C36.0329 39.792 35.9266 39.6912 35.8037 39.6143C35.6808 39.5373 35.5437 39.4858 35.4005 39.4627C35.2573 39.4396 35.111 39.4455 34.9701 39.4799C34.8292 39.5144 34.6967 39.5767 34.5803 39.6633C31.1229 42.0887 27.005 43.3992 22.7848 43.4016C11.3869 43.4079 2.17008 34.1844 2.17008 22.7858C2.17008 11.3872 11.3872 2.17008 22.7858 2.17008C34.1844 2.17008 43.4039 11.3875 43.4016 22.7858C43.4007 27.0096 42.0977 31.1308 39.6749 34.592C39.5904 34.7086 39.5299 34.8409 39.497 34.9811C39.4641 35.1213 39.4595 35.2667 39.4834 35.4088C39.5072 35.5508 39.5592 35.6867 39.6361 35.8085C39.713 35.9302 39.8134 36.0355 39.9314 36.118C40.0494 36.2006 40.1827 36.2589 40.3235 36.2894C40.4642 36.3199 40.6097 36.3221 40.7513 36.2959C40.8929 36.2696 41.0279 36.2154 41.1484 36.1365C41.2688 36.0575 41.3724 35.9554 41.453 35.836C44.1302 32.0112 45.5707 27.4556 45.5717 22.7858C45.5741 10.2142 35.3572 0 22.7858 0ZM22.7858 4.34016C20.4125 4.34085 18.0628 4.8048 15.8666 5.69752C15.7345 5.75121 15.6143 5.83039 15.5128 5.93055C15.4113 6.0307 15.3306 6.14987 15.2752 6.28123C15.2197 6.4126 15.1908 6.5536 15.1898 6.69617C15.1889 6.83875 15.2161 6.98011 15.2698 7.11218C15.3235 7.24425 15.4027 7.36445 15.5029 7.4659C15.6031 7.56736 15.7223 7.64809 15.8537 7.70347C15.985 7.75886 16.126 7.78783 16.2686 7.78872C16.4112 7.78961 16.5525 7.7624 16.6846 7.70865C18.6239 6.92035 20.6951 6.51085 22.7858 6.51024C31.7871 6.50759 39.0614 13.7842 39.0614 22.7858C39.0614 31.7874 31.7874 39.0614 22.7858 39.0614C13.7842 39.0614 6.50732 31.787 6.51024 22.7858C6.51091 20.6952 6.92104 18.6239 7.70971 16.6846C7.76347 16.5525 7.79069 16.4112 7.78981 16.2686C7.78893 16.126 7.75997 15.985 7.70458 15.8536C7.64919 15.7222 7.56847 15.603 7.46701 15.5029C7.36555 15.4027 7.24535 15.3235 7.11327 15.2697C6.98119 15.216 6.83983 15.1888 6.69724 15.1898C6.55466 15.1907 6.41366 15.2197 6.28229 15.2751C6.15092 15.3305 6.03175 15.4113 5.93159 15.5128C5.83144 15.6143 5.75226 15.7345 5.69858 15.8666C4.8055 18.0626 4.34093 20.4122 4.34016 22.7858C4.33686 32.9607 12.6114 41.2315 22.7858 41.2315C32.9602 41.2315 41.2315 32.9602 41.2315 22.7858C41.2315 12.6114 32.9606 4.33717 22.7858 4.34016ZM30.4574 14.0737C29.622 14.0737 28.7858 14.388 28.1549 15.0189L19.7161 23.4566L17.4136 21.1583C16.1517 19.8964 14.0736 19.8964 12.8117 21.1583C11.5499 22.4201 11.5499 24.4983 12.8117 25.7601L17.4136 30.3652C18.6755 31.6271 20.7578 31.6271 22.0197 30.3652L32.7599 19.6208C34.0218 18.3589 34.0218 16.2808 32.7599 15.0189C32.129 14.388 31.2928 14.0737 30.4574 14.0737ZM30.4595 16.2237C30.7334 16.2237 31.0075 16.334 31.2267 16.5532C31.665 16.9915 31.665 17.6481 31.2267 18.0865L20.4854 28.8277C20.0471 29.266 19.3894 29.266 18.9511 28.8277L14.346 24.2258C13.9077 23.7875 13.9077 23.1309 14.346 22.6926C14.7844 22.2543 15.442 22.2543 15.8804 22.6926L18.9511 25.7601C19.1546 25.9636 19.4305 26.0778 19.7183 26.0778C20.006 26.0778 20.2819 25.9636 20.4854 25.7601L29.6924 16.5532C29.9115 16.334 30.1856 16.2237 30.4595 16.2237ZM38.147 37.046C38.0017 37.0437 37.8575 37.0705 37.7228 37.1249C37.5881 37.1793 37.4657 37.2603 37.3629 37.3629C37.262 37.4636 37.1819 37.5833 37.1273 37.715C37.0727 37.8468 37.0446 37.988 37.0446 38.1306C37.0446 38.2731 37.0727 38.4143 37.1273 38.5461C37.1819 38.6778 37.262 38.7975 37.3629 38.8982C37.4636 38.9991 37.5833 39.0792 37.715 39.1338C37.8468 39.1884 37.988 39.2165 38.1306 39.2165C38.2731 39.2165 38.4143 39.1884 38.5461 39.1338C38.6778 39.0792 38.7975 38.9991 38.8982 38.8982C38.9991 38.7975 39.0792 38.6778 39.1338 38.5461C39.1884 38.4143 39.2165 38.2731 39.2165 38.1306C39.2165 37.988 39.1884 37.8468 39.1338 37.715C39.0792 37.5833 38.9991 37.4636 38.8982 37.3629C38.6985 37.1636 38.4291 37.05 38.147 37.046Z" fill="white"/>
</svg>
